<mxfile host="app.diagrams.net" agent="Mozilla/5.0 (Windows NT 10.0; Win64; x64; rv:136.0) Gecko/20100101 Firefox/136.0" version="26.1.0">
  <diagram name="Page-1" id="DwpfjO_TCSz-OJ_yhVE-">
    <mxGraphModel dx="1184" dy="1374" grid="1" gridSize="10" guides="1" tooltips="1" connect="1" arrows="1" fold="1" page="1" pageScale="1" pageWidth="827" pageHeight="1169" math="0" shadow="0">
      <root>
        <mxCell id="0" />
        <mxCell id="1" parent="0" />
        <mxCell id="ZbWL5J4fI_mSLcuh5hGV-37" value="" style="rounded=0;whiteSpace=wrap;html=1;" vertex="1" parent="1">
          <mxGeometry x="10" y="10" width="810" height="1110" as="geometry" />
        </mxCell>
        <mxCell id="ZbWL5J4fI_mSLcuh5hGV-1" value="Create Account" style="ellipse;whiteSpace=wrap;html=1;fillColor=#ffe6cc;strokeColor=#d79b00;" vertex="1" parent="1">
          <mxGeometry x="220" y="40" width="140" height="70" as="geometry" />
        </mxCell>
        <mxCell id="ZbWL5J4fI_mSLcuh5hGV-3" value="Note Driver" style="ellipse;whiteSpace=wrap;html=1;fillColor=#ffe6cc;strokeColor=#d79b00;" vertex="1" parent="1">
          <mxGeometry x="220" y="500" width="140" height="70" as="geometry" />
        </mxCell>
        <mxCell id="ZbWL5J4fI_mSLcuh5hGV-4" value="Ponctually" style="ellipse;whiteSpace=wrap;html=1;fillColor=#f0a30a;strokeColor=#BD7000;fontColor=#000000;" vertex="1" parent="1">
          <mxGeometry x="480" y="410" width="140" height="70" as="geometry" />
        </mxCell>
        <mxCell id="ZbWL5J4fI_mSLcuh5hGV-5" value="Driving Style" style="ellipse;whiteSpace=wrap;html=1;fillColor=#f0a30a;strokeColor=#BD7000;fontColor=#000000;" vertex="1" parent="1">
          <mxGeometry x="480" y="600" width="140" height="70" as="geometry" />
        </mxCell>
        <mxCell id="ZbWL5J4fI_mSLcuh5hGV-6" value="Courtesy" style="ellipse;whiteSpace=wrap;html=1;fillColor=#f0a30a;strokeColor=#BD7000;fontColor=#000000;" vertex="1" parent="1">
          <mxGeometry x="480" y="500" width="140" height="70" as="geometry" />
        </mxCell>
        <mxCell id="ZbWL5J4fI_mSLcuh5hGV-7" value="" style="endArrow=block;endSize=16;endFill=0;html=1;rounded=0;entryX=0.5;entryY=0;entryDx=0;entryDy=0;exitX=0;exitY=0.5;exitDx=0;exitDy=0;" edge="1" parent="1" source="ZbWL5J4fI_mSLcuh5hGV-4" target="ZbWL5J4fI_mSLcuh5hGV-3">
          <mxGeometry width="160" relative="1" as="geometry">
            <mxPoint x="460" y="440" as="sourcePoint" />
            <mxPoint x="340" y="440" as="targetPoint" />
            <Array as="points">
              <mxPoint x="290" y="445" />
            </Array>
          </mxGeometry>
        </mxCell>
        <mxCell id="ZbWL5J4fI_mSLcuh5hGV-8" value="" style="endArrow=block;endSize=16;endFill=0;html=1;rounded=0;entryX=0.5;entryY=1;entryDx=0;entryDy=0;exitX=0;exitY=0.5;exitDx=0;exitDy=0;" edge="1" parent="1" source="ZbWL5J4fI_mSLcuh5hGV-5" target="ZbWL5J4fI_mSLcuh5hGV-3">
          <mxGeometry width="160" relative="1" as="geometry">
            <mxPoint x="450" y="634.58" as="sourcePoint" />
            <mxPoint x="330" y="634.58" as="targetPoint" />
            <Array as="points">
              <mxPoint x="290" y="635" />
            </Array>
          </mxGeometry>
        </mxCell>
        <mxCell id="ZbWL5J4fI_mSLcuh5hGV-9" value="Account Management" style="ellipse;whiteSpace=wrap;html=1;fillColor=#ffe6cc;strokeColor=#d79b00;" vertex="1" parent="1">
          <mxGeometry x="220" y="860" width="140" height="70" as="geometry" />
        </mxCell>
        <mxCell id="ZbWL5J4fI_mSLcuh5hGV-10" value="&lt;div&gt;Edit Personnal&lt;/div&gt;&lt;div&gt;information &amp;amp; &lt;br&gt;&lt;/div&gt;&lt;div&gt;preferences&lt;/div&gt;" style="ellipse;whiteSpace=wrap;html=1;fillColor=#ffff88;strokeColor=#36393d;" vertex="1" parent="1">
          <mxGeometry x="480" y="1020" width="140" height="70" as="geometry" />
        </mxCell>
        <mxCell id="ZbWL5J4fI_mSLcuh5hGV-11" value="&lt;div&gt;Advertissement&lt;/div&gt;&lt;div&gt;(Notification)&lt;/div&gt;" style="ellipse;whiteSpace=wrap;html=1;fillColor=#ffff88;strokeColor=#36393d;" vertex="1" parent="1">
          <mxGeometry x="480" y="700" width="140" height="70" as="geometry" />
        </mxCell>
        <mxCell id="ZbWL5J4fI_mSLcuh5hGV-12" value="Delete Account" style="ellipse;whiteSpace=wrap;html=1;fillColor=#ffff88;strokeColor=#36393d;" vertex="1" parent="1">
          <mxGeometry x="480" y="860" width="140" height="70" as="geometry" />
        </mxCell>
        <mxCell id="ZbWL5J4fI_mSLcuh5hGV-13" value="Booking" style="ellipse;whiteSpace=wrap;html=1;fillColor=#ffff88;strokeColor=#36393d;" vertex="1" parent="1">
          <mxGeometry x="480" y="780" width="140" height="70" as="geometry" />
        </mxCell>
        <mxCell id="ZbWL5J4fI_mSLcuh5hGV-14" value="Messages" style="ellipse;whiteSpace=wrap;html=1;fillColor=#ffff88;strokeColor=#36393d;" vertex="1" parent="1">
          <mxGeometry x="480" y="940" width="140" height="70" as="geometry" />
        </mxCell>
        <mxCell id="ZbWL5J4fI_mSLcuh5hGV-15" value="" style="endArrow=block;endSize=16;endFill=0;html=1;rounded=0;exitX=0;exitY=0.5;exitDx=0;exitDy=0;entryX=0.5;entryY=0;entryDx=0;entryDy=0;" edge="1" parent="1" source="ZbWL5J4fI_mSLcuh5hGV-11" target="ZbWL5J4fI_mSLcuh5hGV-9">
          <mxGeometry width="160" relative="1" as="geometry">
            <mxPoint x="420" y="830" as="sourcePoint" />
            <mxPoint x="580" y="830" as="targetPoint" />
            <Array as="points">
              <mxPoint x="290" y="735" />
            </Array>
          </mxGeometry>
        </mxCell>
        <mxCell id="ZbWL5J4fI_mSLcuh5hGV-16" value="" style="endArrow=block;endSize=16;endFill=0;html=1;rounded=0;entryX=1;entryY=0;entryDx=0;entryDy=0;exitX=0;exitY=0.5;exitDx=0;exitDy=0;" edge="1" parent="1" source="ZbWL5J4fI_mSLcuh5hGV-13" target="ZbWL5J4fI_mSLcuh5hGV-9">
          <mxGeometry width="160" relative="1" as="geometry">
            <mxPoint x="460" y="840" as="sourcePoint" />
            <mxPoint x="340" y="840" as="targetPoint" />
            <Array as="points">
              <mxPoint x="340" y="815" />
            </Array>
          </mxGeometry>
        </mxCell>
        <mxCell id="ZbWL5J4fI_mSLcuh5hGV-17" value="" style="endArrow=block;endSize=16;endFill=0;html=1;rounded=0;entryX=1;entryY=0.5;entryDx=0;entryDy=0;exitX=0;exitY=0.5;exitDx=0;exitDy=0;" edge="1" parent="1" source="ZbWL5J4fI_mSLcuh5hGV-12" target="ZbWL5J4fI_mSLcuh5hGV-9">
          <mxGeometry width="160" relative="1" as="geometry">
            <mxPoint x="474" y="900" as="sourcePoint" />
            <mxPoint x="354" y="900" as="targetPoint" />
          </mxGeometry>
        </mxCell>
        <mxCell id="ZbWL5J4fI_mSLcuh5hGV-18" value="" style="endArrow=block;endSize=16;endFill=0;html=1;rounded=0;entryX=1;entryY=1;entryDx=0;entryDy=0;exitX=0;exitY=0.5;exitDx=0;exitDy=0;" edge="1" parent="1" source="ZbWL5J4fI_mSLcuh5hGV-14" target="ZbWL5J4fI_mSLcuh5hGV-9">
          <mxGeometry width="160" relative="1" as="geometry">
            <mxPoint x="414" y="1010" as="sourcePoint" />
            <mxPoint x="294" y="1010" as="targetPoint" />
            <Array as="points">
              <mxPoint x="340" y="975" />
            </Array>
          </mxGeometry>
        </mxCell>
        <mxCell id="ZbWL5J4fI_mSLcuh5hGV-19" value="" style="endArrow=block;endSize=16;endFill=0;html=1;rounded=0;entryX=0.5;entryY=1;entryDx=0;entryDy=0;exitX=0;exitY=0.5;exitDx=0;exitDy=0;" edge="1" parent="1" source="ZbWL5J4fI_mSLcuh5hGV-10" target="ZbWL5J4fI_mSLcuh5hGV-9">
          <mxGeometry width="160" relative="1" as="geometry">
            <mxPoint x="440" y="1050" as="sourcePoint" />
            <mxPoint x="320" y="1050" as="targetPoint" />
            <Array as="points">
              <mxPoint x="290" y="1055" />
            </Array>
          </mxGeometry>
        </mxCell>
        <mxCell id="ZbWL5J4fI_mSLcuh5hGV-20" value="Messages send" style="ellipse;whiteSpace=wrap;html=1;fillColor=#ffff88;strokeColor=#36393d;" vertex="1" parent="1">
          <mxGeometry x="670" y="900" width="140" height="70" as="geometry" />
        </mxCell>
        <mxCell id="ZbWL5J4fI_mSLcuh5hGV-21" value="Message Received" style="ellipse;whiteSpace=wrap;html=1;fillColor=#ffff88;strokeColor=#36393d;" vertex="1" parent="1">
          <mxGeometry x="670" y="990" width="140" height="70" as="geometry" />
        </mxCell>
        <mxCell id="ZbWL5J4fI_mSLcuh5hGV-22" value="" style="endArrow=block;endSize=16;endFill=0;html=1;rounded=0;exitX=0;exitY=0.5;exitDx=0;exitDy=0;entryX=0.953;entryY=0.289;entryDx=0;entryDy=0;entryPerimeter=0;" edge="1" parent="1" source="ZbWL5J4fI_mSLcuh5hGV-20" target="ZbWL5J4fI_mSLcuh5hGV-14">
          <mxGeometry width="160" relative="1" as="geometry">
            <mxPoint x="620" y="870" as="sourcePoint" />
            <mxPoint x="780" y="870" as="targetPoint" />
          </mxGeometry>
        </mxCell>
        <mxCell id="ZbWL5J4fI_mSLcuh5hGV-23" value="" style="endArrow=block;endSize=16;endFill=0;html=1;rounded=0;exitX=0;exitY=0.5;exitDx=0;exitDy=0;entryX=0.945;entryY=0.743;entryDx=0;entryDy=0;entryPerimeter=0;" edge="1" parent="1" source="ZbWL5J4fI_mSLcuh5hGV-21" target="ZbWL5J4fI_mSLcuh5hGV-14">
          <mxGeometry width="160" relative="1" as="geometry">
            <mxPoint x="690" y="945" as="sourcePoint" />
            <mxPoint x="610" y="960" as="targetPoint" />
          </mxGeometry>
        </mxCell>
        <mxCell id="ZbWL5J4fI_mSLcuh5hGV-24" value="Sign in" style="ellipse;whiteSpace=wrap;html=1;fillColor=#a0522d;fontColor=#ffffff;strokeColor=#6D1F00;" vertex="1" parent="1">
          <mxGeometry x="90" y="630" width="140" height="70" as="geometry" />
        </mxCell>
        <mxCell id="ZbWL5J4fI_mSLcuh5hGV-25" value="Search Itinary" style="ellipse;whiteSpace=wrap;html=1;fillColor=#ffe6cc;strokeColor=#d79b00;" vertex="1" parent="1">
          <mxGeometry x="220" y="160" width="140" height="70" as="geometry" />
        </mxCell>
        <mxCell id="ZbWL5J4fI_mSLcuh5hGV-26" value="&lt;div&gt;Reserve a seat&lt;/div&gt;&lt;div&gt;on the route&lt;/div&gt;" style="ellipse;whiteSpace=wrap;html=1;fillColor=#ffe6cc;strokeColor=#d79b00;" vertex="1" parent="1">
          <mxGeometry x="220" y="290" width="140" height="70" as="geometry" />
        </mxCell>
        <mxCell id="ZbWL5J4fI_mSLcuh5hGV-27" value="&amp;lt;&amp;lt; include &amp;gt;&amp;gt;" style="endArrow=open;endSize=12;dashed=1;html=1;rounded=0;exitX=0;exitY=0;exitDx=0;exitDy=0;entryX=0.5;entryY=1;entryDx=0;entryDy=0;" edge="1" parent="1" source="ZbWL5J4fI_mSLcuh5hGV-9" target="ZbWL5J4fI_mSLcuh5hGV-24">
          <mxGeometry width="160" relative="1" as="geometry">
            <mxPoint x="250" y="770" as="sourcePoint" />
            <mxPoint x="410" y="770" as="targetPoint" />
            <Array as="points">
              <mxPoint x="160" y="870" />
            </Array>
          </mxGeometry>
        </mxCell>
        <mxCell id="ZbWL5J4fI_mSLcuh5hGV-28" value="&amp;lt;&amp;lt; include &amp;gt;&amp;gt;" style="endArrow=open;endSize=12;dashed=1;html=1;rounded=0;exitX=0;exitY=1;exitDx=0;exitDy=0;entryX=1;entryY=0;entryDx=0;entryDy=0;" edge="1" parent="1" source="ZbWL5J4fI_mSLcuh5hGV-3" target="ZbWL5J4fI_mSLcuh5hGV-24">
          <mxGeometry width="160" relative="1" as="geometry">
            <mxPoint x="230" y="690" as="sourcePoint" />
            <mxPoint x="149" y="520" as="targetPoint" />
            <Array as="points">
              <mxPoint x="209" y="560" />
            </Array>
          </mxGeometry>
        </mxCell>
        <mxCell id="ZbWL5J4fI_mSLcuh5hGV-29" value="&amp;lt;&amp;lt; include &amp;gt;&amp;gt;" style="endArrow=open;endSize=12;dashed=1;html=1;rounded=0;exitX=0;exitY=1;exitDx=0;exitDy=0;entryX=0.5;entryY=0;entryDx=0;entryDy=0;" edge="1" parent="1" source="ZbWL5J4fI_mSLcuh5hGV-26" target="ZbWL5J4fI_mSLcuh5hGV-24">
          <mxGeometry width="160" relative="1" as="geometry">
            <mxPoint x="171" y="460" as="sourcePoint" />
            <mxPoint x="160" y="565" as="targetPoint" />
            <Array as="points">
              <mxPoint x="160" y="350" />
            </Array>
          </mxGeometry>
        </mxCell>
        <mxCell id="ZbWL5J4fI_mSLcuh5hGV-30" value="Passager" style="shape=umlActor;verticalLabelPosition=bottom;verticalAlign=top;html=1;" vertex="1" parent="1">
          <mxGeometry x="10" y="630" width="30" height="60" as="geometry" />
        </mxCell>
        <mxCell id="ZbWL5J4fI_mSLcuh5hGV-31" value="" style="endArrow=none;html=1;rounded=0;entryX=0;entryY=0.5;entryDx=0;entryDy=0;" edge="1" parent="1" target="ZbWL5J4fI_mSLcuh5hGV-3">
          <mxGeometry width="50" height="50" relative="1" as="geometry">
            <mxPoint x="50" y="660" as="sourcePoint" />
            <mxPoint x="190" y="510" as="targetPoint" />
            <Array as="points">
              <mxPoint x="80" y="660" />
              <mxPoint x="80" y="535" />
            </Array>
          </mxGeometry>
        </mxCell>
        <mxCell id="ZbWL5J4fI_mSLcuh5hGV-32" value="" style="endArrow=none;html=1;rounded=0;entryX=0;entryY=0.5;entryDx=0;entryDy=0;" edge="1" parent="1" target="ZbWL5J4fI_mSLcuh5hGV-26">
          <mxGeometry width="50" height="50" relative="1" as="geometry">
            <mxPoint x="50" y="640" as="sourcePoint" />
            <mxPoint x="120" y="310" as="targetPoint" />
            <Array as="points">
              <mxPoint x="70" y="640" />
              <mxPoint x="70" y="325" />
            </Array>
          </mxGeometry>
        </mxCell>
        <mxCell id="ZbWL5J4fI_mSLcuh5hGV-33" value="" style="endArrow=block;endSize=16;endFill=0;html=1;rounded=0;entryX=1;entryY=0.5;entryDx=0;entryDy=0;exitX=0;exitY=0.5;exitDx=0;exitDy=0;" edge="1" parent="1" source="ZbWL5J4fI_mSLcuh5hGV-6" target="ZbWL5J4fI_mSLcuh5hGV-3">
          <mxGeometry width="160" relative="1" as="geometry">
            <mxPoint x="490" y="645" as="sourcePoint" />
            <mxPoint x="300" y="580" as="targetPoint" />
            <Array as="points" />
          </mxGeometry>
        </mxCell>
        <mxCell id="ZbWL5J4fI_mSLcuh5hGV-34" value="" style="endArrow=none;html=1;rounded=0;entryX=0;entryY=0.5;entryDx=0;entryDy=0;" edge="1" parent="1" target="ZbWL5J4fI_mSLcuh5hGV-9">
          <mxGeometry width="50" height="50" relative="1" as="geometry">
            <mxPoint x="50" y="680" as="sourcePoint" />
            <mxPoint x="270" y="780" as="targetPoint" />
            <Array as="points">
              <mxPoint x="70" y="680" />
              <mxPoint x="70" y="895" />
            </Array>
          </mxGeometry>
        </mxCell>
        <mxCell id="ZbWL5J4fI_mSLcuh5hGV-35" value="" style="endArrow=none;html=1;rounded=0;entryX=0;entryY=0.5;entryDx=0;entryDy=0;" edge="1" parent="1" target="ZbWL5J4fI_mSLcuh5hGV-25">
          <mxGeometry width="50" height="50" relative="1" as="geometry">
            <mxPoint x="50" y="630" as="sourcePoint" />
            <mxPoint x="200" y="350" as="targetPoint" />
            <Array as="points">
              <mxPoint x="60" y="630" />
              <mxPoint x="60" y="195" />
            </Array>
          </mxGeometry>
        </mxCell>
        <mxCell id="ZbWL5J4fI_mSLcuh5hGV-36" value="" style="endArrow=none;html=1;rounded=0;entryX=0;entryY=0.5;entryDx=0;entryDy=0;" edge="1" parent="1" target="ZbWL5J4fI_mSLcuh5hGV-1">
          <mxGeometry width="50" height="50" relative="1" as="geometry">
            <mxPoint x="30" y="620" as="sourcePoint" />
            <mxPoint x="200" y="350" as="targetPoint" />
            <Array as="points">
              <mxPoint x="30" y="75" />
            </Array>
          </mxGeometry>
        </mxCell>
      </root>
    </mxGraphModel>
  </diagram>
</mxfile>
